#!OML:ASF F:\VICON\USERDATA\INSTALL\rory3\rory3.ASF
:FULLY-SPECIFIED
:DEGREES
1463
root 0.402975 15.9303 -0.0606691 -1.5042 0.875301 -1.35441
lowerback 16.2962 1.10472 -0.560209
upperback -2.39526 1.39425 0.287819
thorax -11.8562 0.705309 0.269142
lowerneck -14.8193 -11.8151 -14.4368
upperneck 25.9138 -16.7161 11.9376
head 13.5233 -7.48548 4.0891
rclavicle 5.72748e-015 -2.88238e-015
rhumerus 22.46 -34.1017 -83.6972
rradius 65.0447
rwrist -33.3835
rhand -15.5217 4.28169
rfingers 7.12502
rthumb 10.6615 -25.4278
lclavicle 5.72748e-015 -2.88238e-015
lhumerus -38.7016 -20.6046 97.6822
lradius 24.5429
lwrist 3.53968
lhand -7.54467 16.008
lfingers 7.12502
lthumb 18.3469 45.1628
rfemur -3.43189 10.289 18.3436
rtibia 23.9759
rfoot -14.4762 -13.2382
rtoes -9.89016
lfemur -3.16681 -11.3761 -16.8551
ltibia 22.1894
lfoot -12.9763 7.09576
ltoes -12.0766
1464
root 0.401983 15.9297 -0.0623406 -1.52114 0.959007 -1.24228
lowerback 16.4076 1.10087 -0.679162
upperback -2.36198 1.36307 0.28142
thorax -11.8864 0.69822 0.336196
lowerneck -14.9486 -11.8439 -14.5083
upperneck 25.755 -16.7479 12.0901
head 13.5146 -7.48444 4.14407
rclavicle 5.02242e-015 8.74653e-015
rhumerus 21.6903 -35.8042 -83.6599
rradius 64.9781
rwrist -33.7986
rhand -15.3412 4.50556
rfingers 7.12502
rthumb 10.8356 -25.1949
lclavicle 5.02242e-015 8.74653e-015
lhumerus -38.6439 -20.7169 97.7647
lradius 24.5211
lwrist 3.73732
lhand -7.52147 16.026
lfingers 7.12502
lthumb 18.3692 45.1787
rfemur -3.39644 10.1649 18.2173
rtibia 23.9571
rfoot -14.427 -13.2236
rtoes -9.94337
lfemur -3.1783 -11.438 -16.9825
ltibia 22.2218
lfoot -12.9894 7.0953
ltoes -12.2255
1465
root 0.399518 15.9307 -0.0627477 -1.52285 1.00304 -1.24206
lowerback 16.5018 1.10339 -0.703116
upperback -2.34555 1.36145 0.287092
thorax -11.9239 0.699146 0.355002
lowerneck -14.946 -11.8637 -14.5184
upperneck 25.4718 -16.7891 12.2622
head 13.424 -7.48813 4.19916
rclavicle -2.56075e-014 -2.98177e-015
rhumerus 20.703 -37.3736 -83.4555
rradius 64.9256
rwrist -33.999
rhand -14.1139 4.26469
rfingers 7.12502
rthumb 12.0193 -25.3702
lclavicle -2.56075e-014 -2.98177e-015
lhumerus -38.6334 -20.7511 97.766
lradius 24.5444
lwrist 3.74527
lhand -7.47498 16.0945
lfingers 7.12502
lthumb 18.414 45.243
rfemur -3.38136 10.1064 18.2235
rtibia 23.9482
rfoot -14.4924 -13.1886
rtoes -9.50362
lfemur -3.19949 -11.4407 -16.9684
ltibia 22.2425
lfoot -13.009 7.06974
ltoes -12.3285
1466
root 0.39757 15.9316 -0.063652 -1.52748 1.03966 -1.35398
lowerback 16.6119 1.08919 -0.630195
upperback -2.32687 1.36352 0.343658
thorax -11.967 0.697361 0.373655
lowerneck -14.8681 -11.8605 -14.5799
upperneck 25.0755 -16.8018 12.5176
head 13.282 -7.48059 4.30232
rclavicle 4.20243e-015 5.96354e-016
rhumerus 19.6215 -38.8077 -83.098
rradius 64.8384
rwrist -34.3265
rhand -13.6545 4.02196
rfingers 7.12502
rthumb 12.4622 -25.5865
lclavicle 4.20243e-015 5.96354e-016
lhumerus -38.6854 -20.7271 97.806
lradius 24.6499
lwrist 3.72966
lhand -7.44481 16.2
lfingers 7.12502
lthumb 18.443 45.3457
rfemur -3.38158 10.0699 18.3585
rtibia 23.9459
rfoot -14.4754 -13.2223
rtoes -9.66499
lfemur -3.23178 -11.4156 -16.8251
ltibia 22.2721
lfoot -12.9727 7.00956
ltoes -12.5286
1467
root 0.394788 15.9304 -0.0655613 -1.50173 1.06629 -1.35297
lowerback 16.7095 1.08935 -0.67819
upperback -2.31137 1.35559 0.365293
thorax -12.0084 0.697677 0.425376
lowerneck -14.7971 -11.8653 -14.6339
upperneck 24.6665 -16.8292 12.7884
head 13.1411 -7.47739 4.40599
rclavicle 5.96199e-015 -9.14409e-015
rhumerus 18.4749 -40.1816 -82.6741
rradius 64.757
rwrist -34.6116
rhand -15.1322 4.35344
rfingers 7.12502
rthumb 11.0372 -25.3364
lclavicle 5.96199e-015 -9.14409e-015
lhumerus -38.7829 -20.7574 97.8409
lradius 24.8327
lwrist 3.81265
lhand -7.45964 16.2854
lfingers 7.12502
lthumb 18.4287 45.4325
rfemur -3.41158 10.0778 18.3658
rtibia 23.9338
rfoot -14.4699 -13.2651
rtoes -9.93724
lfemur -3.30491 -11.422 -16.8063
ltibia 22.3425
lfoot -12.9536 7.00604
ltoes -12.4226
1468
root 0.392102 15.929 -0.0670185 -1.49841 1.08172 -1.38913
lowerback 16.8278 1.08466 -0.664525
upperback -2.30781 1.35395 0.386307
thorax -12.0741 0.69672 0.439311
lowerneck -14.8443 -11.8882 -14.6886
upperneck 24.4389 -16.8662 12.9721
head 13.0913 -7.47945 4.47134
rclavicle -8.46698e-015 -3.37934e-015
rhumerus 17.0706 -41.3792 -81.9255
rradius 64.6672
rwrist -34.8531
rhand -16.379 4.62586
rfingers 7.12502
rthumb 9.83454 -25.1245
lclavicle -8.46698e-015 -3.37934e-015
lhumerus -38.8283 -20.6787 97.8094
lradius 24.8878
lwrist 3.79791
lhand -7.39697 16.2495
lfingers 7.12502
lthumb 18.489 45.3909
rfemur -3.42697 10.0646 18.4192
rtibia 23.9579
rfoot -14.4465 -13.3142
rtoes -10.325
lfemur -3.34138 -11.3895 -16.7429
ltibia 22.3908
lfoot -12.9711 6.92026
ltoes -12.0496
1469
root 0.389197 15.9295 -0.0683438 -1.50998 1.09735 -1.42895
lowerback 16.9384 1.0844 -0.631137
upperback -2.26036 1.35982 0.386479
thorax -12.0843 0.696873 0.417584
lowerneck -15.0028 -11.942 -14.6809
upperneck 24.2113 -16.9417 13.1304
head 13.0619 -7.48997 4.50314
rclavicle 1.75893e-014 2.5842e-015
rhumerus 15.5626 -42.4459 -81.0401
rradius 64.5279
rwrist -35.0466
rhand -16.6665 4.55406
rfingers 7.12502
rthumb 9.55712 -25.2092
lclavicle 1.75893e-014 2.5842e-015
lhumerus -38.7678 -20.7184 97.7441
lradius 24.9244
lwrist 3.8268
lhand -7.29963 16.1217
lfingers 7.12502
lthumb 18.5826 45.2541
rfemur -3.45453 10.0904 18.4867
rtibia 24.0487
rfoot -14.5093 -13.3339
rtoes -10.3374
lfemur -3.34371 -11.3284 -16.676
ltibia 22.3746
lfoot -12.9415 6.8655
ltoes -12.2895
